<?xml version="1.0" encoding="iso-8859-1"?>
<!-- Generator: Adobe Illustrator 19.0.0, SVG Export Plug-In . SVG Version: 6.00 Build 0)  -->
<svg version="1.1" id="Layer_1" xmlns="http://www.w3.org/2000/svg" xmlns:xlink="http://www.w3.org/1999/xlink" x="0px" y="0px"
	 viewBox="0 0 512 512" style="enable-background:new 0 0 512 512;" xml:space="preserve">
<path style="fill:#8AD5DD;" d="M256,20c130.128,0,236,105.872,236,236S386.128,492,256,492S20,386.128,20,256S125.872,20,256,20
	 M256,0C114.616,0,0,114.616,0,256s114.616,256,256,256s256-114.616,256-256S397.384,0,256,0L256,0z"/>
<path style="fill:#2D2D2D;" d="M378.736,111.352l-179.52,36.28V319.32c-9.632-6.576-22.056-10.536-35.744-10.536
	c-30.344,0-54.92,19.536-54.92,43.664s24.576,43.664,54.92,43.664s54.92-19.536,54.92-43.664V219.472l139.456-21.968V298.16
	c-9.36-5.856-21.16-9.456-34.032-9.456c-30.344,0-54.92,19.536-54.92,43.664s24.576,43.664,54.92,43.664s54.92-19.536,54.92-43.664
	c0-1.624-0.184-3.328-0.36-4.864h0.36L378.736,111.352L378.736,111.352z"/>
<g>
</g>
<g>
</g>
<g>
</g>
<g>
</g>
<g>
</g>
<g>
</g>
<g>
</g>
<g>
</g>
<g>
</g>
<g>
</g>
<g>
</g>
<g>
</g>
<g>
</g>
<g>
</g>
<g>
</g>
</svg>
